<svg width="33" height="33" viewBox="0 0 33 33" fill="none" xmlns="http://www.w3.org/2000/svg">
<path d="M1.27344 16.5208C2.86018 13.8865 5.10102 11.7071 7.77845 10.1942C10.4559 8.68127 13.479 7.88623 16.5543 7.88623C19.6296 7.88623 22.6526 8.68127 25.3301 10.1942C28.0075 11.7071 30.2483 13.8865 31.8351 16.5208" stroke="black" stroke-width="1.32877" stroke-linecap="round" stroke-linejoin="round"/>
<path d="M1.27344 16.521C2.86018 19.1553 5.10102 21.3347 7.77845 22.8476C10.4559 24.3605 13.479 25.1556 16.5543 25.1556C19.6296 25.1556 22.6526 24.3605 25.3301 22.8476C28.0075 21.3347 30.2483 19.1553 31.8351 16.521" stroke="black" stroke-width="1.32877" stroke-linecap="round" stroke-linejoin="round"/>
<path d="M16.5544 21.0256C19.0972 21.0256 21.1586 19.0089 21.1586 16.5211C21.1586 14.0333 19.0972 12.0166 16.5544 12.0166C14.0116 12.0166 11.9502 14.0333 11.9502 16.5211C11.9502 19.0089 14.0116 21.0256 16.5544 21.0256Z" stroke="black" stroke-width="1.32877" stroke-linecap="round" stroke-linejoin="round"/>
</svg>
