<svg width="33" height="33" viewBox="0 0 33 33" fill="none" xmlns="http://www.w3.org/2000/svg">
<path fill-rule="evenodd" clip-rule="evenodd" d="M22.5934 8.89939C20.6581 8.23117 18.6177 7.88623 16.5547 7.88623C13.3648 7.88623 10.2292 8.71088 7.45202 10.2801C4.67924 11.8469 2.35789 14.1028 0.712505 16.8295C0.694901 16.8574 0.679462 16.8864 0.666257 16.9163C0.62777 17.0029 0.609292 17.0945 0.609375 17.1852C0.609292 17.2758 0.627759 17.3674 0.666221 17.454C0.679436 17.4839 0.694889 17.513 0.712513 17.5409C2.35165 20.2572 4.66163 22.5063 7.42047 24.0724L8.39801 23.0948C8.30012 23.042 8.20268 22.9882 8.10571 22.9334C5.64507 21.543 3.56745 19.5679 2.05499 17.1852C3.56745 14.8025 5.64507 12.8274 8.10571 11.437C10.6834 9.98042 13.5939 9.215 16.5547 9.215C18.2502 9.215 19.9292 9.46601 21.5387 9.9541L22.5934 8.89939ZM10.9649 24.2203C12.7568 24.837 14.6453 25.1554 16.5547 25.1554C19.5155 25.1554 22.4259 24.3899 25.0036 22.9334C27.4643 21.543 29.5419 19.5679 31.0544 17.1852C29.5419 14.8025 27.4643 12.8274 25.0036 11.437C24.7337 11.2844 24.46 11.1395 24.1831 11.0021L25.1706 10.0146C25.334 10.1006 25.4963 10.1891 25.6573 10.2801C28.4301 11.8469 30.7515 14.1028 32.3968 16.8295C32.4145 16.8574 32.43 16.8865 32.4432 16.9165C32.4816 17.0031 32.5001 17.0946 32.5 17.1852C32.5001 17.2757 32.4816 17.3672 32.4432 17.4538C32.43 17.4838 32.4145 17.5129 32.3968 17.5409C30.7515 20.2675 28.4301 22.5235 25.6573 24.0902C22.8802 25.6595 19.7445 26.4841 16.5547 26.4841C14.2817 26.4841 12.0362 26.0654 9.9283 25.2569L10.9649 24.2203Z" fill="black"/>
<rect x="27.8496" y="4.56445" width="1.32877" height="12.6357" transform="rotate(45 27.8496 4.56445)" fill="black"/>
<rect x="12.8389" y="19.5747" width="1.32877" height="11.991" transform="rotate(45 12.8389 19.5747)" fill="black"/>
<path d="M16.5554 21.6897C19.0982 21.6897 21.1595 19.673 21.1595 17.1852C21.1595 14.6974 19.0982 12.6807 16.5554 12.6807C14.0125 12.6807 11.9512 14.6974 11.9512 17.1852C11.9512 19.673 14.0125 21.6897 16.5554 21.6897Z" stroke="black" stroke-width="1.32877" stroke-linecap="round" stroke-linejoin="round"/>
</svg>
