<svg width="31" height="32" viewBox="0 0 31 32" fill="none" xmlns="http://www.w3.org/2000/svg">
<path d="M26.7779 13.6713C23.0904 13.6695 19.4029 13.6704 15.7154 13.6708C15.7159 15.2003 15.7136 16.7297 15.7163 18.2587C17.8518 18.2582 19.9874 18.2578 22.1225 18.2587C21.875 19.7244 21.004 21.0646 19.7688 21.8898C18.9924 22.4118 18.1003 22.7507 17.1806 22.9118C16.2549 23.0698 15.2984 23.09 14.3751 22.9031C13.4361 22.7157 12.5398 22.3245 11.7579 21.7731C10.5076 20.8947 9.55347 19.6095 9.06355 18.1632C8.5626 16.692 8.55892 15.0551 9.06585 13.5854C9.41757 12.5495 10.003 11.5926 10.7721 10.8139C11.7207 9.84275 12.954 9.14851 14.2828 8.86383C15.4206 8.62095 16.6203 8.6673 17.7343 9.00431C18.6811 9.29177 19.554 9.81059 20.2689 10.4934C20.9916 9.77475 21.7106 9.05204 22.432 8.3321C22.8103 7.94459 23.208 7.57403 23.5744 7.17596C22.4788 6.16211 21.1946 5.34713 19.7913 4.83194C17.265 3.90219 14.416 3.88246 11.8727 4.76271C9.00659 5.74392 6.56615 7.88725 5.21305 10.5963C4.74196 11.5298 4.39802 12.5262 4.19141 13.551C3.67163 16.1044 4.03392 18.8268 5.21166 21.1524C5.97709 22.6703 7.07446 24.0198 8.40559 25.0777C9.66141 26.0791 11.1252 26.8189 12.6771 27.2316C14.6355 27.7569 16.72 27.745 18.6912 27.2964C20.4728 26.8864 22.1583 26.0351 23.5041 24.7926C24.9266 23.4854 25.9413 21.763 26.4785 19.9122C27.0644 17.8933 27.1453 15.738 26.7779 13.6713Z" fill="#042291"/>
</svg>
