<svg width="32" height="33" viewBox="0 0 32 33" fill="none" xmlns="http://www.w3.org/2000/svg">
<path fill-rule="evenodd" clip-rule="evenodd" d="M22.3253 20.2202L19.7647 22.8187L27.992 31.046L30.545 28.4475L22.3253 20.2202Z" fill="#042291"/>
<path fill-rule="evenodd" clip-rule="evenodd" d="M22.7041 19.6824C23.8405 17.8945 24.5071 15.7733 24.5071 13.493C24.5071 7.12174 19.348 1.95508 12.9844 1.95508C6.61319 1.95508 1.4541 7.12174 1.4541 13.493C1.4541 19.8642 6.61319 25.0308 12.9768 25.0308C15.2874 25.0308 17.4389 24.349 19.242 23.1824L19.7647 22.8187L22.3253 20.2202L22.7041 19.6824ZM22.1056 13.4854C22.1056 11.0536 21.1586 8.76568 19.4389 7.04599C17.7193 5.32629 15.4314 4.37932 12.9996 4.37932C10.5677 4.37932 8.27986 5.32629 6.56016 7.04599C4.84046 8.76568 3.8935 11.0536 3.8935 13.4854C3.8935 15.9172 4.84046 18.2051 6.56016 19.9248C8.27986 21.6445 10.5677 22.5914 12.9996 22.5914C15.4314 22.5914 17.7193 21.6445 19.4389 19.9248C21.1586 18.2051 22.1056 15.9172 22.1056 13.4854Z" fill="#042291"/>
</svg>
