<svg width="30" height="31" viewBox="0 0 30 31" fill="none" xmlns="http://www.w3.org/2000/svg">
<path fill-rule="evenodd" clip-rule="evenodd" d="M21.3253 19.2202L18.7647 21.8187L26.992 30.046L29.545 27.4475L21.3253 19.2202Z" fill="white"/>
<path fill-rule="evenodd" clip-rule="evenodd" d="M21.7041 18.6824C22.8405 16.8945 23.5071 14.7733 23.5071 12.493C23.5071 6.12174 18.348 0.955078 11.9844 0.955078C5.61319 0.955078 0.454102 6.12174 0.454102 12.493C0.454102 18.8642 5.61319 24.0308 11.9768 24.0308C14.2874 24.0308 16.4389 23.349 18.242 22.1824L18.7647 21.8187L21.3253 19.2202L21.7041 18.6824ZM21.1056 12.4854C21.1056 10.0536 20.1586 7.76568 18.4389 6.04599C16.7193 4.32629 14.4314 3.37932 11.9996 3.37932C9.56774 3.37932 7.27986 4.32629 5.56016 6.04599C3.84046 7.76568 2.8935 10.0536 2.8935 12.4854C2.8935 14.9172 3.84046 17.2051 5.56016 18.9248C7.27986 20.6445 9.56774 21.5914 11.9996 21.5914C14.4314 21.5914 16.7193 20.6445 18.4389 18.9248C20.1586 17.2051 21.1056 14.9172 21.1056 12.4854Z" fill="white"/>
</svg>
